<svg xmlns="http://www.w3.org/2000/svg" viewBox="0 0 32 32" fill="none" role="img" aria-label="SliceHRMS">
  <rect width="32" height="32" rx="8" fill="url(#slicehrms-grad)"/>
  <path
    d="M16 8.5c-2.8 0-5 1.6-5.5 4-.6-.3-1.3-.5-2-.5-2.2 0-4 1.8-4 4.2 0 2.1 1.5 3.8 3.5 4.2.8 2.8 3.4 4.8 6.5 4.8 2.3 0 4.3-1.1 5.5-2.8 2.2-.4 3.8-2.3 3.8-4.6 0-2.6-2.1-4.7-4.8-4.7-.5 0-1 .1-1.4.2C20.2 10.3 18.3 8.5 16 8.5Z"
    stroke="#fff"
    stroke-width="1.35"
    stroke-linecap="round"
    stroke-linejoin="round"
  />
  <path
    d="M12.5 14.5c1.2 1.4 2.2 2.1 3.5 2.1s2.3-.7 3.5-2.1M13 18.5c.9 1 1.8 1.5 3 1.5s2.1-.5 3-1.5"
    stroke="#fff"
    stroke-width="1.2"
    stroke-linecap="round"
    opacity=".92"
  />
  <circle cx="13.2" cy="12.8" r=".85" fill="#fff"/>
  <circle cx="18.8" cy="12.8" r=".85" fill="#fff"/>
  <defs>
    <linearGradient id="slicehrms-grad" x1="4" y1="4" x2="28" y2="28" gradientUnits="userSpaceOnUse">
      <stop stop-color="#4aafa0"/>
      <stop offset="1" stop-color="#24776d"/>
    </linearGradient>
  </defs>
</svg>
